<svg id="Layer_1" data-name="Layer 1" xmlns="http://www.w3.org/2000/svg" viewBox="0 0 512 512"><defs><style>.cls-1{fill:#cad8dd;}.cls-2{fill:#dde5e8;}.cls-3{opacity:0.06;}.cls-4{fill:#17292d;}.cls-5{fill:#f4607f;}.cls-6{fill:#ba385d;}</style></defs><title>user-x-flat</title><path class="cls-1" d="M262.4,307.2h-64A172.8,172.8,0,0,0,25.6,480h0a32,32,0,0,0,32,32H403.2a32,32,0,0,0,32-32h0A172.8,172.8,0,0,0,262.4,307.2Z"/><path class="cls-2" d="M230.4,0a128,128,0,0,0-128,128v38.4a128,128,0,0,0,64,110.87V332.8l64,38.4,64-38.4V277.27a128,128,0,0,0,64-110.87V128A128,128,0,0,0,230.4,0Z"/><g class="cls-3"><path class="cls-4" d="M230.4,0a127.82,127.82,0,0,0-32,4.2,127.94,127.94,0,0,1,96,123.8v38.4a127.94,127.94,0,0,1-96,123.8,127.55,127.55,0,0,0,160-123.8V128A128,128,0,0,0,230.4,0Z"/></g><circle class="cls-5" cx="396.8" cy="371.2" r="89.6"/><path class="cls-6" d="M422.4,409.6a12.76,12.76,0,0,1-9-3.75l-51.2-51.2a12.8,12.8,0,0,1,18.1-18.1l51.2,51.2a12.8,12.8,0,0,1-9.05,21.85Z"/><path class="cls-6" d="M371.2,409.6a12.8,12.8,0,0,1-9.05-21.85l51.2-51.2a12.8,12.8,0,0,1,18.1,18.1l-51.2,51.2A12.76,12.76,0,0,1,371.2,409.6Z"/></svg>